<svg id="_Layer_" data-name="&lt;Layer&gt;" xmlns="http://www.w3.org/2000/svg" viewBox="0 0 1065.16 1165.9"><defs><style>.cls-1{fill:#fff;stroke:#262424;stroke-miterlimit:10;}</style></defs><circle class="cls-1" cx="530.15" cy="582.95" r="114.89"/><path class="cls-1" d="M747.58,1332.45c-76.56,0-145.26-86.34-188.48-236.88l38.45-11c36.81,128.25,94.3,207.92,150,207.92,55.93,0,113.53-80.08,150.31-209l38.47,11C893.19,1245.7,824.39,1332.45,747.58,1332.45Z" transform="translate(-217.42 -167.05)"/><path class="cls-1" d="M546.33,1046.08c-7.81-34-14.26-70.15-19.18-107.41l39.65-5.24c4.76,36,11,70.91,18.52,103.69Z" transform="translate(-217.42 -167.05)"/><path class="cls-1" d="M927.22,558.2c-2.36-17-5.12-34-8.21-50.71l39.33-7.28c3.2,17.28,6.06,34.94,8.5,52.49l.19,2.75-20.19,0Z" transform="translate(-217.42 -167.05)"/><path class="cls-1" d="M896.63,412c-37.37-128-93.1-204.45-149-204.45-55.78,0-111.37,76-148.71,203.38l-38.39-11.26c43.26-147.51,111.45-232.12,187.1-232.12,75.85,0,144.17,85,187.44,233.24Z" transform="translate(-217.42 -167.05)"/><path class="cls-1" d="M949.08,1044.89l-39-8.88c7.25-31.83,13.26-65.33,17.88-99.58l39.64,5.34C962.82,977.21,956.59,1011.9,949.08,1044.89Z" transform="translate(-217.42 -167.05)"/><path class="cls-1" d="M978.6,816.19l-40-1.78c1-21.38,1.43-43,1.43-64.41,0-44-2-87.81-5.81-130.29l-.09-1.81,20.29,0,19.63-1.78c4,43.68,6,88.73,6,133.91C980.07,771.94,979.58,794.21,978.6,816.19Z" transform="translate(-217.42 -167.05)"/><path class="cls-1" d="M567.54,561.22l-39.63-5.44c5.1-37.22,11.68-73.08,19.54-106.6l38.94,9.14C578.82,490.61,572.47,525.23,567.54,561.22Z" transform="translate(-217.42 -167.05)"/><path class="cls-1" d="M520.35,875.45c-3.5-40.94-5.27-83.15-5.27-125.45,0-23.27.53-46.18,1.57-68.1l40,1.9c-1,21.29-1.52,43.57-1.52,66.2,0,41.17,1.72,82.23,5.12,122Z" transform="translate(-217.42 -167.05)"/><path class="cls-1" d="M405.64,1032.78c-40.45,0-111.37-6.13-131.88-47.18-18.84-37.68,9.33-102.84,75.36-174.29,74.67-80.81,188.07-161.43,319.28-227,152.84-76.41,312.08-122,426-122,40.44,0,111.35,6.13,131.88,47.18,18.83,37.69-9.34,102.85-75.36,174.29-74.68,80.81-188.08,161.44-319.29,227C678.77,987.16,519.53,1032.78,405.64,1032.78Zm688.74-530.53c-108,0-260.54,44-408.09,117.81-127,63.49-236.31,141.05-307.8,218.4C307.74,915,304.94,958.52,309.54,967.71c6,12.07,38.68,25.07,96.1,25.07,108,0,260.53-44,408.08-117.8,127-63.49,236.31-141.06,307.8-218.41,70.76-76.56,73.56-120.06,69-129.26C1184.44,515.25,1151.8,502.25,1094.38,502.25Z" transform="translate(-217.42 -167.05)"/><path class="cls-1" d="M677.11,970.6c-9.05-4.26-18.92-9.06-31.05-15.1-40-20-79.08-41.75-116.29-64.73-48.66-30-93.61-61.93-133.61-94.89-13.67-11.21-26.75-22.55-38.83-33.66l27.09-29.43c11.52,10.6,24,21.43,37.14,32.2,38.63,31.82,82.09,62.68,129.21,91.74,36.21,22.36,74.28,43.55,113.15,63,11.83,5.89,21.44,10.56,30.22,14.69Z" transform="translate(-217.42 -167.05)"/><path class="cls-1" d="M320.58,726.38C231.13,632.94,198.62,548,229,487.06c37.68-75.3,165.74-95,342.54-52.76a1165.32,1165.32,0,0,1,118.58,35.3L676.8,507.3a1129,1129,0,0,0-114.5-34.09C409.5,436.69,292.73,449.15,264.81,505c-22,44,8.89,114.61,84.66,193.77Z" transform="translate(-217.42 -167.05)"/><path class="cls-1" d="M1093.34,1082.65c-48.83,0-105.6-7.5-168.48-22.77a1173.55,1173.55,0,0,1-115-34.43l13.34-37.7A1140.82,1140.82,0,0,0,934.28,1021c154.67,37.55,272.77,25.4,300.9-31,22-44-8.88-114.57-84.65-193.73-11-11.47-22.71-22.93-34.9-34.07-48.19-44.23-106-87-171.88-127.29l-9.14-5.58c-31.68-19-64.78-37.18-98.53-54-30.72-15.36-62.25-29.77-93.72-42.82l15.33-36.94c32.32,13.4,64.72,28.2,96.28,44,38,19,75.24,39.61,110.63,61.22l9.57,6c64.13,39.88,120.77,82.24,168.48,126,12.81,11.72,25.2,23.81,36.78,35.92,89.45,93.44,122,178.41,91.54,239.26C1246.39,1057.17,1183.35,1082.64,1093.34,1082.65Z" transform="translate(-217.42 -167.05)"/></svg>